<svg height='300px' width='300px'  fill="#000000" xmlns="http://www.w3.org/2000/svg" xmlns:xlink="http://www.w3.org/1999/xlink" version="1.1" x="0px" y="0px" viewBox="0 0 512 512" enable-background="new 0 0 512 512" xml:space="preserve"><g><path d="M483.8,256c-12.7,0-23.7,9.4-25,22c-11,101.7-97.4,181.2-202,181.2c-55.1,0-104.9-22.4-141.6-58.2l36.6-36.6   c7.2-7.2,2.1-19.6-8.1-19.6H39.6c-6.3,0-11.5,5.1-11.5,11.5v104.1c0,10.2,12.3,15.3,19.6,8.1l31.6-31.6   c45.8,45,108.2,73.1,177.4,73.1c130.6,0,238.2-98.6,252.4-225.5C510.8,269.4,499,256,483.8,256z"></path><path d="M53.3,234c11-101.7,97.4-181.2,202-181.2c55.1,0,104.9,22.4,141.6,58.2l-36.6,36.6c-7.2,7.2-2.1,19.6,8.1,19.6h104.1   c6.3,0,11.5-5.1,11.5-11.5V51.6c0-10.2-12.3-15.3-19.6-8.1l-31.6,31.6C386.9,30.1,324.6,2,255.3,2C124.6,2,17,100.6,2.9,227.5   C1.2,242.6,13,256,28.3,256C40.9,256,51.9,246.6,53.3,234z"></path></g></svg>
